STARTFONT 2.1
FONT -Adobe-Times-Medium-R-Normal--24-240-75-75-P-124-windows-1251
SIZE 24 75 75
FONTBOUNDINGBOX 26 28 -1 -6
COMMENT $XConsortium: timR24.bdf,v 1.14 95/01/26 18:07:31 gildea Exp $
COMMENT 
COMMENT +
COMMENT  Copyright 1984-1989, 1994 Adobe Systems Incorporated.
COMMENT  Copyright 1988, 1994 Digital Equipment Corporation.
COMMENT
COMMENT  Adobe is a trademark of Adobe Systems Incorporated which may be
COMMENT  registered in certain jurisdictions.
COMMENT  Permission to use these trademarks is hereby granted only in
COMMENT  association with the images described in this file.
COMMENT
COMMENT  Permission to use, copy, modify, distribute and sell this software
COMMENT  and its documentation for any purpose and without fee is hereby
COMMENT  granted, provided that the above copyright notices appear in all
COMMENT  copies and that both those copyright notices and this permission
COMMENT  notice appear in supporting documentation, and that the names of
COMMENT  Adobe Systems and Digital Equipment Corporation not be used in
COMMENT  advertising or publicity pertaining to distribution of the software
COMMENT  without specific, written prior permission.  Adobe Systems and
COMMENT  Digital Equipment Corporation make no representations about the
COMMENT  suitability of this software for any purpose.  It is provided "as
COMMENT  is" without express or implied warranty.
COMMENT -
STARTPROPERTIES 32
FOUNDRY "Adobe"
FAMILY_NAME "Times"
WEIGHT_NAME "Medium"
SLANT "R"
SETWIDTH_NAME "Normal"
ADD_STYLE_NAME ""
PIXEL_SIZE 24
POINT_SIZE 240
RESOLUTION_X 75
RESOLUTION_Y 75
SPACING "P"
AVERAGE_WIDTH 124
CHARSET_REGISTRY "windows"
CHARSET_ENCODING "1251"
CAP_HEIGHT 17
X_HEIGHT 12
FONT_ASCENT 20
FONT_DESCENT 6
FACE_NAME "Times Roman"
COPYRIGHT "Copyright (c) 1984, 1987 Adobe Systems Incorporated. All Rights Reserved. Copyright (c) 1988, 1991 Digital Equipment Corporation. All Rights Reserved."
NOTICE "Times is a trademark of Linotype-Hell AG and/or its subsidiaries."

STARTCHAR space
ENCODING 32
SWIDTH 250 0
DWIDTH 6 0
BBX 0 0 0 0
BITMAP
ENDCHAR
STARTCHAR exclam
ENCODING 33
SWIDTH 333 0
DWIDTH 8 0
BBX 2 17 3 0
BITMAP
C0
C0
C0
C0
C0
C0
C0
C0
C0
C0
C0
C0
00
00
00
C0
C0
ENDCHAR
STARTCHAR quotedbl
ENCODING 34
SWIDTH 408 0
DWIDTH 10 0
BBX 6 5 1 12
BITMAP
CC
CC
CC
CC
88
ENDCHAR
STARTCHAR numbersign
ENCODING 35
SWIDTH 500 0
DWIDTH 13 0
BBX 11 17 1 0
BITMAP
0880
0880
0880
0880
0880
7FE0
7FE0
1100
1100
1100
FFC0
FFC0
2200
2200
2200
2200
2200
ENDCHAR
STARTCHAR dollar
ENCODING 36
SWIDTH 500 0
DWIDTH 12 0
BBX 11 21 0 -2
BITMAP
0400
0400
1F80
34E0
6460
6420
6400
7400
3C00
1E00
0780
07C0
04E0
0460
8460
8460
C4C0
E5C0
3F00
0400
0400
ENDCHAR
STARTCHAR percent
ENCODING 37
SWIDTH 833 0
DWIDTH 19 0
BBX 17 16 1 0
BITMAP
1E0C00
33FC00
611800
C11000
C13000
C26000
E44000
78C000
018F00
011980
033080
066080
046080
0C6100
187200
303C00
ENDCHAR
STARTCHAR ampersand
ENCODING 38
SWIDTH 778 0
DWIDTH 18 0
BBX 16 17 1 0
BITMAP
0780
0CC0
1840
1840
18C0
1D80
0F00
0E3E
1E18
3710
6320
C1A0
C1C0
C0C0
E1E1
7F7E
3C3C
ENDCHAR
STARTCHAR quotesingle
ENCODING 39
SWIDTH 180 0
DWIDTH 6 0
BBX 2 5 2 12
BITMAP
C0
C0
C0
C0
80
ENDCHAR
STARTCHAR parenleft
ENCODING 40
SWIDTH 333 0
DWIDTH 8 0
BBX 6 22 1 -5
BITMAP
04
08
10
30
20
60
60
C0
C0
C0
C0
C0
C0
C0
C0
60
60
20
30
10
08
04
ENDCHAR
STARTCHAR parenright
ENCODING 41
SWIDTH 333 0
DWIDTH 8 0
BBX 6 22 1 -5
BITMAP
80
40
20
30
10
18
18
0C
0C
0C
0C
0C
0C
0C
0C
18
18
10
30
20
40
80
ENDCHAR
STARTCHAR asterisk
ENCODING 42
SWIDTH 500 0
DWIDTH 12 0
BBX 9 9 2 8
BITMAP
0800
1C00
C980
EB80
1C00
EB80
C980
1C00
0800
ENDCHAR
STARTCHAR plus
ENCODING 43
SWIDTH 564 0
DWIDTH 14 0
BBX 12 12 1 1
BITMAP
0600
0600
0600
0600
0600
FFF0
FFF0
0600
0600
0600
0600
0600
ENDCHAR
STARTCHAR comma
ENCODING 44
SWIDTH 250 0
DWIDTH 7 0
BBX 3 5 2 -3
BITMAP
C0
E0
20
60
C0
ENDCHAR
STARTCHAR minus
ENCODING 45
SWIDTH 564 0
DWIDTH 14 0
BBX 12 2 1 6
BITMAP
FFF0
FFF0
ENDCHAR
STARTCHAR period
ENCODING 46
SWIDTH 250 0
DWIDTH 6 0
BBX 2 2 2 0
BITMAP
C0
C0
ENDCHAR
STARTCHAR slash
ENCODING 47
SWIDTH 278 0
DWIDTH 7 0
BBX 8 20 -1 -3
BITMAP
03
03
03
06
06
04
0C
0C
08
18
18
10
30
30
20
60
60
C0
C0
C0
ENDCHAR
STARTCHAR zero
ENCODING 48
SWIDTH 500 0
DWIDTH 12 0
BBX 10 17 1 0
BITMAP
1E00
3300
6180
6180
C0C0
C0C0
C0C0
C0C0
C0C0
C0C0
C0C0
C0C0
E1C0
6180
6180
3300
1E00
ENDCHAR
STARTCHAR one
ENCODING 49
SWIDTH 500 0
DWIDTH 12 0
BBX 8 17 2 0
BITMAP
08
18
78
18
18
18
18
18
18
18
18
18
18
18
18
18
FF
ENDCHAR
STARTCHAR two
ENCODING 50
SWIDTH 500 0
DWIDTH 12 0
BBX 10 17 1 0
BITMAP
1C00
7F00
4380
8180
8180
0180
0180
0300
0300
0600
0400
0C00
1800
3000
6040
FFC0
FF80
ENDCHAR
STARTCHAR three
ENCODING 51
SWIDTH 500 0
DWIDTH 12 0
BBX 9 17 1 0
BITMAP
1C00
7E00
4700
8300
8300
0600
0C00
1E00
0700
0380
0180
0180
0180
0100
C300
E600
7800
ENDCHAR
STARTCHAR four
ENCODING 52
SWIDTH 500 0
DWIDTH 12 0
BBX 10 17 1 0
BITMAP
0300
0700
0700
0B00
1B00
1300
3300
2300
6300
4300
C300
FFC0
FFC0
0300
0300
0300
0300
ENDCHAR
STARTCHAR five
ENCODING 53
SWIDTH 500 0
DWIDTH 12 0
BBX 10 17 1 0
BITMAP
1FC0
1F80
2000
2000
6000
7800
7E00
0F80
0380
01C0
00C0
00C0
00C0
00C0
C180
E380
7E00
ENDCHAR
STARTCHAR six
ENCODING 54
SWIDTH 500 0
DWIDTH 12 0
BBX 10 17 1 0
BITMAP
03C0
0E00
1800
3000
7000
6000
EE00
F380
C180
C0C0
C0C0
C0C0
C0C0
E0C0
6180
7B80
1E00
ENDCHAR
STARTCHAR seven
ENCODING 55
SWIDTH 500 0
DWIDTH 12 0
BBX 10 17 1 0
BITMAP
7FC0
FFC0
C0C0
8180
0180
0100
0300
0300
0200
0600
0600
0400
0C00
0C00
0C00
1800
1800
ENDCHAR
STARTCHAR eight
ENCODING 56
SWIDTH 500 0
DWIDTH 12 0
BBX 10 17 1 0
BITMAP
1E00
3300
6180
6180
6180
3300
1E00
1E00
3700
6180
41C0
C0C0
C0C0
C0C0
E180
7380
1E00
ENDCHAR
STARTCHAR nine
ENCODING 57
SWIDTH 500 0
DWIDTH 12 0
BBX 10 17 1 0
BITMAP
1E00
7780
6180
C1C0
C0C0
C0C0
C0C0
C0C0
61C0
73C0
1D80
0180
0380
0300
0600
1C00
F000
ENDCHAR
STARTCHAR colon
ENCODING 58
SWIDTH 278 0
DWIDTH 6 0
BBX 2 11 2 0
BITMAP
C0
C0
00
00
00
00
00
00
00
C0
C0
ENDCHAR
STARTCHAR semicolon
ENCODING 59
SWIDTH 278 0
DWIDTH 7 0
BBX 3 14 2 -3
BITMAP
C0
C0
00
00
00
00
00
00
00
C0
E0
20
60
C0
ENDCHAR
STARTCHAR less
ENCODING 60
SWIDTH 564 0
DWIDTH 13 0
BBX 11 11 1 1
BITMAP
0060
01C0
0700
1C00
7000
C000
7000
1C00
0700
01C0
0060
ENDCHAR
STARTCHAR equal
ENCODING 61
SWIDTH 564 0
DWIDTH 14 0
BBX 12 6 1 4
BITMAP
FFF0
FFF0
0000
0000
FFF0
FFF0
ENDCHAR
STARTCHAR greater
ENCODING 62
SWIDTH 564 0
DWIDTH 13 0
BBX 11 11 1 1
BITMAP
C000
7000
1C00
0700
01C0
0060
01C0
0700
1C00
7000
C000
ENDCHAR
STARTCHAR question
ENCODING 63
SWIDTH 444 0
DWIDTH 11 0
BBX 8 17 2 0
BITMAP
7C
C6
83
C3
C3
07
0E
0C
18
18
10
10
10
00
00
30
30
ENDCHAR
STARTCHAR at
ENCODING 64
SWIDTH 921 0
DWIDTH 22 0
BBX 18 20 2 -3
BITMAP
03F800
0F0E00
1C0300
380180
700080
60ECC0
E1FC40
C38C40
C30C40
C60C40
C61840
C618C0
C61880
C63980
637B00
61DE00
300000
180000
0E0C00
03F000
ENDCHAR
STARTCHAR A
ENCODING 65
SWIDTH 722 0
DWIDTH 17 0
BBX 17 17 0 0
BITMAP
008000
01C000
01C000
016000
026000
023000
063000
043000
041800
0C1800
0FF800
080C00
180C00
100C00
100600
300600
FC1F80
ENDCHAR
STARTCHAR B
ENCODING 66
SWIDTH 667 0
DWIDTH 16 0
BBX 14 17 1 0
BITMAP
FFC0
3070
3030
3018
3018
3018
3030
3040
3FE0
3038
3018
300C
300C
300C
3018
3078
FFE0
ENDCHAR
STARTCHAR C
ENCODING 67
SWIDTH 667 0
DWIDTH 16 0
BBX 14 17 1 0
BITMAP
07E4
1C3C
380C
6004
6004
C000
C000
C000
C000
C000
C000
C000
6000
6004
3808
1E38
07E0
ENDCHAR
STARTCHAR D
ENCODING 68
SWIDTH 722 0
DWIDTH 17 0
BBX 15 17 1 0
BITMAP
FFC0
3070
3038
300C
300C
3006
3006
3006
3006
3006
3006
3006
300C
300C
3038
3070
FFC0
ENDCHAR
STARTCHAR E
ENCODING 69
SWIDTH 611 0
DWIDTH 15 0
BBX 13 17 1 0
BITMAP
FFF0
3030
3010
3010
3000
3000
3040
3040
3FC0
3040
3040
3000
3000
3008
3008
3018
FFF8
ENDCHAR
STARTCHAR F
ENCODING 70
SWIDTH 556 0
DWIDTH 14 0
BBX 12 17 1 0
BITMAP
FFF0
3030
3010
3010
3000
3000
3020
3020
3FE0
3020
3020
3000
3000
3000
3000
3000
FC00
ENDCHAR
STARTCHAR G
ENCODING 71
SWIDTH 722 0
DWIDTH 18 0
BBX 16 17 1 0
BITMAP
07E4
1C3C
380C
6004
6004
C000
C000
C000
C000
C03F
C00C
C00C
600C
600C
381C
1E38
07E0
ENDCHAR
STARTCHAR H
ENCODING 72
SWIDTH 722 0
DWIDTH 19 0
BBX 17 17 1 0
BITMAP
FC1F80
300600
300600
300600
300600
300600
300600
300600
3FFE00
300600
300600
300600
300600
300600
300600
300600
FC1F80
ENDCHAR
STARTCHAR I
ENCODING 73
SWIDTH 333 0
DWIDTH 8 0
BBX 6 17 1 0
BITMAP
FC
30
30
30
30
30
30
30
30
30
30
30
30
30
30
30
FC
ENDCHAR
STARTCHAR J
ENCODING 74
SWIDTH 389 0
DWIDTH 11 0
BBX 9 17 1 0
BITMAP
1F80
0600
0600
0600
0600
0600
0600
0600
0600
0600
0600
0600
0600
0600
C600
CC00
7800
ENDCHAR
STARTCHAR K
ENCODING 75
SWIDTH 722 0
DWIDTH 17 0
BBX 16 17 1 0
BITMAP
FC7E
3018
3030
3060
30C0
3180
3300
3E00
3F00
3380
31C0
30E0
3070
3038
301C
300E
FC1F
ENDCHAR
STARTCHAR L
ENCODING 76
SWIDTH 611 0
DWIDTH 14 0
BBX 13 17 1 0
BITMAP
FC00
3000
3000
3000
3000
3000
3000
3000
3000
3000
3000
3000
3000
3008
3008
3018
FFF8
ENDCHAR
STARTCHAR M
ENCODING 77
SWIDTH 889 0
DWIDTH 22 0
BBX 21 17 1 0
BITMAP
F000F8
3000E0
380160
380160
2C0260
2C0260
260260
260460
230460
230860
218860
218860
20D060
20D060
206060
206060
F821F8
ENDCHAR
STARTCHAR N
ENCODING 78
SWIDTH 722 0
DWIDTH 18 0
BBX 16 17 1 0
BITMAP
F01F
3004
3804
3804
2C04
2604
2604
2304
2184
2184
20C4
2064
2064
2034
201C
201C
F80C
ENDCHAR
STARTCHAR O
ENCODING 79
SWIDTH 722 0
DWIDTH 18 0
BBX 16 17 1 0
BITMAP
07E0
1C38
381C
6006
6006
C003
C003
C003
C003
C003
C003
C003
6006
6006
381C
1C38
07E0
ENDCHAR
STARTCHAR P
ENCODING 80
SWIDTH 556 0
DWIDTH 15 0
BBX 13 17 1 0
BITMAP
FFC0
3070
3030
3018
3018
3018
3030
3070
3FC0
3000
3000
3000
3000
3000
3000
3000
FC00
ENDCHAR
STARTCHAR Q
ENCODING 81
SWIDTH 722 0
DWIDTH 18 0
BBX 16 22 1 -5
BITMAP
07E0
1C38
381C
6006
6006
C003
C003
C003
C003
C003
C003
C003
6006
6006
381C
1C38
07E0
01C0
00E0
0070
0038
000F
ENDCHAR
STARTCHAR R
ENCODING 82
SWIDTH 667 0
DWIDTH 16 0
BBX 15 17 1 0
BITMAP
FFC0
3070
3030
3038
3018
3038
3030
3070
3FC0
3380
31C0
30C0
3060
3070
3038
301C
FC1E
ENDCHAR
STARTCHAR S
ENCODING 83
SWIDTH 556 0
DWIDTH 13 0
BBX 11 17 1 0
BITMAP
1E40
63C0
C0C0
C040
C040
E000
7800
1E00
0F80
03C0
00E0
0060
8060
8060
C0C0
F180
9E00
ENDCHAR
STARTCHAR T
ENCODING 84
SWIDTH 611 0
DWIDTH 16 0
BBX 14 17 1 0
BITMAP
FFFC
C30C
8304
8304
0300
0300
0300
0300
0300
0300
0300
0300
0300
0300
0300
0300
0FC0
ENDCHAR
STARTCHAR U
ENCODING 85
SWIDTH 722 0
DWIDTH 18 0
BBX 16 17 1 0
BITMAP
FC1F
3004
3004
3004
3004
3004
3004
3004
3004
3004
3004
3004
3004
3008
1808
1C30
07E0
ENDCHAR
STARTCHAR V
ENCODING 86
SWIDTH 722 0
DWIDTH 17 0
BBX 17 17 0 0
BITMAP
FC1F80
300600
300400
180C00
180800
180800
0C1800
0C1000
063000
062000
062000
036000
034000
03C000
018000
018000
018000
ENDCHAR
STARTCHAR W
ENCODING 87
SWIDTH 944 0
DWIDTH 23 0
BBX 23 17 0 0
BITMAP
FC7E7E
301818
301810
181810
181830
182C20
0C2C20
0C2C60
064C60
064C40
064640
0346C0
034680
038780
018380
018300
018300
ENDCHAR
STARTCHAR X
ENCODING 88
SWIDTH 722 0
DWIDTH 18 0
BBX 18 17 0 0
BITMAP
7E0F80
1C0600
0E0C00
060800
031000
03A000
01C000
00C000
00E000
017000
023800
061800
040C00
080E00
180700
300380
FC0FC0
ENDCHAR
STARTCHAR Y
ENCODING 89
SWIDTH 722 0
DWIDTH 16 0
BBX 16 17 0 0
BITMAP
FC3F
300C
3808
1818
1C10
0C30
0620
0660
0340
03C0
0180
0180
0180
0180
0180
0180
07E0
ENDCHAR
STARTCHAR Z
ENCODING 90
SWIDTH 611 0
DWIDTH 15 0
BBX 13 17 1 0
BITMAP
FFF0
C070
80E0
80C0
01C0
0380
0300
0700
0600
0E00
1C00
1800
3800
3008
7008
E018
FFF8
ENDCHAR
STARTCHAR bracketleft
ENCODING 91
SWIDTH 333 0
DWIDTH 8 0
BBX 5 21 2 -4
BITMAP
F8
C0
C0
C0
C0
C0
C0
C0
C0
C0
C0
C0
C0
C0
C0
C0
C0
C0
C0
C0
F8
ENDCHAR
STARTCHAR backslash
ENCODING 92
SWIDTH 278 0
DWIDTH 7 0
BBX 7 17 0 0
BITMAP
C0
C0
40
60
60
20
30
30
10
18
18
08
0C
0C
04
06
06
ENDCHAR
STARTCHAR bracketright
ENCODING 93
SWIDTH 333 0
DWIDTH 8 0
BBX 5 21 1 -4
BITMAP
F8
18
18
18
18
18
18
18
18
18
18
18
18
18
18
18
18
18
18
18
F8
ENDCHAR
STARTCHAR asciicircum
ENCODING 94
SWIDTH 469 0
DWIDTH 11 0
BBX 9 9 1 8
BITMAP
0800
1C00
1400
3600
2200
6300
4100
C180
8080
ENDCHAR
STARTCHAR underscore
ENCODING 95
SWIDTH 500 0
DWIDTH 13 0
BBX 13 2 0 -5
BITMAP
FFF8
FFF8
ENDCHAR
STARTCHAR grave
ENCODING 96
SWIDTH 333 0
DWIDTH 8 0
BBX 5 4 1 13
BITMAP
C0
E0
30
08
ENDCHAR
STARTCHAR a
ENCODING 97
SWIDTH 444 0
DWIDTH 11 0
BBX 9 12 1 0
BITMAP
3E00
6700
6300
0300
0F00
3B00
6300
C300
C300
C700
FB00
7180
ENDCHAR
STARTCHAR b
ENCODING 98
SWIDTH 500 0
DWIDTH 12 0
BBX 10 17 1 0
BITMAP
E000
6000
6000
6000
6000
6E00
7380
6180
60C0
60C0
60C0
60C0
60C0
60C0
6180
7380
5E00
ENDCHAR
STARTCHAR c
ENCODING 99
SWIDTH 444 0
DWIDTH 11 0
BBX 9 12 1 0
BITMAP
1F00
6380
4180
C000
C000
C000
C000
C000
E000
7080
7F00
1E00
ENDCHAR
STARTCHAR d
ENCODING 100
SWIDTH 500 0
DWIDTH 12 0
BBX 10 17 1 0
BITMAP
0380
0180
0180
0180
0180
1D80
7380
6180
C180
C180
C180
C180
C180
C180
6180
7380
1EC0
ENDCHAR
STARTCHAR e
ENCODING 101
SWIDTH 444 0
DWIDTH 11 0
BBX 9 12 1 0
BITMAP
1E00
6300
4180
C180
FF80
C000
C000
C000
E000
7080
7F00
1E00
ENDCHAR
STARTCHAR f
ENCODING 102
SWIDTH 333 0
DWIDTH 7 0
BBX 7 17 0 0
BITMAP
0E
16
30
30
30
FE
30
30
30
30
30
30
30
30
30
30
78
ENDCHAR
STARTCHAR g
ENCODING 103
SWIDTH 500 0
DWIDTH 12 0
BBX 11 17 1 -5
BITMAP
1FC0
3300
6180
6180
6180
6180
3300
3E00
3000
6000
7F00
3FC0
6060
C020
C060
F1C0
3F00
ENDCHAR
STARTCHAR h
ENCODING 104
SWIDTH 500 0
DWIDTH 13 0
BBX 11 17 1 0
BITMAP
E000
6000
6000
6000
6000
6700
6F80
71C0
60C0
60C0
60C0
60C0
60C0
60C0
60C0
60C0
F1E0
ENDCHAR
STARTCHAR i
ENCODING 105
SWIDTH 278 0
DWIDTH 6 0
BBX 4 17 1 0
BITMAP
60
60
00
00
00
E0
60
60
60
60
60
60
60
60
60
60
F0
ENDCHAR
STARTCHAR j
ENCODING 106
SWIDTH 278 0
DWIDTH 6 0
BBX 4 22 0 -5
BITMAP
30
30
00
00
00
70
30
30
30
30
30
30
30
30
30
30
30
30
30
30
E0
C0
ENDCHAR
STARTCHAR k
ENCODING 107
SWIDTH 500 0
DWIDTH 12 0
BBX 11 17 1 0
BITMAP
E000
6000
6000
6000
6000
67C0
6300
6600
6400
6800
7800
6C00
6E00
6700
6380
61C0
F3E0
ENDCHAR
STARTCHAR l
ENCODING 108
SWIDTH 278 0
DWIDTH 6 0
BBX 4 17 1 0
BITMAP
E0
60
60
60
60
60
60
60
60
60
60
60
60
60
60
60
F0
ENDCHAR
STARTCHAR m
ENCODING 109
SWIDTH 778 0
DWIDTH 20 0
BBX 18 12 1 0
BITMAP
E70E00
6F9F00
71E380
60C180
60C180
60C180
60C180
60C180
60C180
60C180
60C180
F1E3C0
ENDCHAR
STARTCHAR n
ENCODING 110
SWIDTH 500 0
DWIDTH 13 0
BBX 11 12 1 0
BITMAP
E700
6F80
71C0
60C0
60C0
60C0
60C0
60C0
60C0
60C0
60C0
F1E0
ENDCHAR
STARTCHAR o
ENCODING 111
SWIDTH 500 0
DWIDTH 12 0
BBX 10 12 1 0
BITMAP
1E00
7380
6180
C0C0
C0C0
C0C0
C0C0
C0C0
C0C0
6180
7380
1E00
ENDCHAR
STARTCHAR p
ENCODING 112
SWIDTH 500 0
DWIDTH 12 0
BBX 10 17 1 -5
BITMAP
EE00
7380
6180
60C0
60C0
60C0
60C0
60C0
60C0
6180
7380
6E00
6000
6000
6000
6000
F000
ENDCHAR
STARTCHAR q
ENCODING 113
SWIDTH 500 0
DWIDTH 12 0
BBX 10 17 1 -5
BITMAP
1D80
7380
6180
C180
C180
C180
C180
C180
C180
6180
7380
1D80
0180
0180
0180
0180
03C0
ENDCHAR
STARTCHAR r
ENCODING 114
SWIDTH 333 0
DWIDTH 8 0
BBX 7 12 1 0
BITMAP
E6
6E
76
60
60
60
60
60
60
60
60
F0
ENDCHAR
STARTCHAR s
ENCODING 115
SWIDTH 389 0
DWIDTH 10 0
BBX 8 12 1 0
BITMAP
3E
66
C2
E0
70
7C
1E
07
03
83
C6
F8
ENDCHAR
STARTCHAR t
ENCODING 116
SWIDTH 278 0
DWIDTH 7 0
BBX 7 15 0 0
BITMAP
10
30
70
FE
30
30
30
30
30
30
30
30
30
32
1C
ENDCHAR
STARTCHAR u
ENCODING 117
SWIDTH 500 0
DWIDTH 13 0
BBX 11 12 1 0
BITMAP
E1C0
60C0
60C0
60C0
60C0
60C0
60C0
60C0
60C0
71C0
3EC0
1CE0
ENDCHAR
STARTCHAR v
ENCODING 118
SWIDTH 500 0
DWIDTH 11 0
BBX 11 12 0 0
BITMAP
F1E0
60C0
6080
3080
3080
3100
1900
1900
1A00
0E00
0E00
0400
ENDCHAR
STARTCHAR w
ENCODING 119
SWIDTH 722 0
DWIDTH 17 0
BBX 17 12 0 0
BITMAP
F1E780
60C300
60C200
30C200
30C200
316400
196400
1A6400
1A2800
0E3800
0E3800
041000
ENDCHAR
STARTCHAR x
ENCODING 120
SWIDTH 500 0
DWIDTH 13 0
BBX 11 12 1 0
BITMAP
F1E0
60C0
3180
3900
1A00
0C00
0E00
1B00
3380
2180
60C0
F1E0
ENDCHAR
STARTCHAR y
ENCODING 121
SWIDTH 500 0
DWIDTH 11 0
BBX 11 17 0 -5
BITMAP
F1E0
60C0
6080
3080
3080
3100
1900
1900
1A00
0E00
0E00
0400
0C00
0800
1800
F000
E000
ENDCHAR
STARTCHAR z
ENCODING 122
SWIDTH 444 0
DWIDTH 10 0
BBX 8 12 1 0
BITMAP
FF
C3
86
0E
1C
18
38
30
70
61
C3
FF
ENDCHAR
STARTCHAR braceleft
ENCODING 123
SWIDTH 480 0
DWIDTH 10 0
BBX 8 22 1 -5
BITMAP
07
0C
18
18
18
18
18
10
30
20
C0
20
30
10
18
18
18
18
18
18
0C
07
ENDCHAR
STARTCHAR bar
ENCODING 124
SWIDTH 200 0
DWIDTH 6 0
BBX 2 17 2 0
BITMAP
C0
C0
C0
C0
C0
C0
C0
C0
C0
C0
C0
C0
C0
C0
C0
C0
C0
ENDCHAR
STARTCHAR braceright
ENCODING 125
SWIDTH 480 0
DWIDTH 10 0
BBX 8 22 1 -5
BITMAP
E0
30
18
18
18
18
18
08
0C
04
03
04
0C
08
18
18
18
18
18
18
30
E0
ENDCHAR
STARTCHAR asciitilde
ENCODING 126
SWIDTH 541 0
DWIDTH 13 0
BBX 11 4 1 5
BITMAP
3820
7C60
C7C0
8380
ENDCHAR
STARTCHAR afii10051
ENCODING 128
SWIDTH 960 0
DWIDTH 24 0
BBX 19 22 1 -5
BITMAP
FFFC00
C30C00
830400
830400
030000
030000
037F00
03C1C0
0380C0
030060
030060
030060
030060
030060
030060
030060
0FC0E0
0000C0
0000C0
000180
000300
000400
ENDCHAR
STARTCHAR afii10052
ENCODING 129
SWIDTH 560 0
DWIDTH 14 0
BBX 13 22 1 0
BITMAP
00C0
01C0
0300
0400
0000
FFF8
3018
3008
3008
3000
3000
3000
3000
3000
3000
3000
3000
3000
3000
3000
3000
FC00
ENDCHAR
STARTCHAR quotesinglbase
ENCODING 130
SWIDTH 333 0
DWIDTH 7 0
BBX 3 5 2 -3
BITMAP
C0
E0
20
60
C0
ENDCHAR
STARTCHAR afii10100
ENCODING 131
SWIDTH 440 0
DWIDTH 11 0
BBX 9 17 1 0
BITMAP
0300
0700
0C00
1000
0000
FF80
6180
6080
6080
6000
6000
6000
6000
6000
6000
6000
F000
ENDCHAR
STARTCHAR quotedblbase
ENCODING 132
SWIDTH 444 0
DWIDTH 11 0
BBX 7 5 2 -3
BITMAP
CC
EE
22
66
CC
ENDCHAR
STARTCHAR ellipsis
ENCODING 133
SWIDTH 1000 0
DWIDTH 25 0
BBX 18 2 3 0
BITMAP
C0C0C0
C0C0C0
ENDCHAR
STARTCHAR dagger
ENCODING 134
SWIDTH 500 0
DWIDTH 12 0
BBX 8 20 2 -2
BITMAP
18
18
18
18
18
FF
FF
18
18
18
18
18
18
18
18
18
18
18
18
18
ENDCHAR
STARTCHAR daggerdbl
ENCODING 135
SWIDTH 500 0
DWIDTH 12 0
BBX 8 20 2 -2
BITMAP
18
18
18
18
18
FF
FF
18
18
18
18
18
18
FF
FF
18
18
18
18
18
ENDCHAR
STARTCHAR Euro
ENCODING 136
SWIDTH 680 0
DWIDTH 17 0
BBX 15 17 1 0
BITMAP
03F2
0E1E
1C06
3002
3002
6000
6000
FFF0
6000
FFC0
6000
6000
3000
3002
1C04
0F1C
03F0
ENDCHAR
STARTCHAR perthousand
ENCODING 137
SWIDTH 1000 0
DWIDTH 25 0
BBX 23 16 1 0
BITMAP
1E0C00
33FC00
621800
C21000
C43000
C86000
704000
00C000
018000
011C1C
033232
066262
04C2C2
0CC4C4
18C8C8
107070
ENDCHAR
STARTCHAR afii10058
ENCODING 138
SWIDTH 1000 0
DWIDTH 25 0
BBX 23 17 1 0
BITMAP
1FFF00
040C00
040C00
040C00
040C00
040C00
040C00
040C00
040FF0
040C1C
040C0C
040C06
080C06
C80C06
C80C0C
D00C3C
603FF0
ENDCHAR
STARTCHAR guilsinglleft
ENCODING 139
SWIDTH 333 0
DWIDTH 8 0
BBX 5 10 1 1
BITMAP
08
18
30
60
C0
C0
60
30
18
08
ENDCHAR
STARTCHAR afii10059
ENCODING 140
SWIDTH 1000 0
DWIDTH 25 0
BBX 23 17 1 0
BITMAP
FC3F00
300C00
300C00
300C00
300C00
300C00
300C00
300C00
3FFFF0
300C1C
300C0C
300C06
300C06
300C06
300C0C
300C3C
FC3FF0
ENDCHAR
STARTCHAR afii10061
ENCODING 141
SWIDTH 680 0
DWIDTH 17 0
BBX 16 22 1 0
BITMAP
0060
00E0
0180
0200
0000
FC7E
3018
3030
3060
30C0
3180
3300
3E00
3F00
3380
31C0
30E0
3070
3038
301C
300E
FC1F
ENDCHAR
STARTCHAR afii10060
ENCODING 142
SWIDTH 1000 0
DWIDTH 25 0
BBX 21 17 1 0
BITMAP
FFFC00
C30C00
830400
830400
030000
030000
037F00
03C1C0
0380C0
030060
030060
030060
030060
030060
030060
030060
0FC1F8
ENDCHAR
STARTCHAR afii10145
ENCODING 143
SWIDTH 760 0
DWIDTH 19 0
BBX 17 21 1 -4
BITMAP
FC1F80
300600
300600
300600
300600
300600
300600
300600
300600
300600
300600
300600
300600
300600
300600
300600
FFFF80
01C000
008000
008000
008000
ENDCHAR
STARTCHAR afii10099
ENCODING 144
SWIDTH 480 0
DWIDTH 12 0
BBX 10 22 1 -5
BITMAP
E000
6000
FE00
6000
6000
6700
6F80
71C0
60C0
60C0
60C0
60C0
60C0
60C0
60C0
60C0
F0C0
0180
0180
0300
0600
0800
ENDCHAR
STARTCHAR quoteleft
ENCODING 145
SWIDTH 333 0
DWIDTH 7 0
BBX 3 5 2 12
BITMAP
60
C0
80
E0
60
ENDCHAR
STARTCHAR quoteright
ENCODING 146
SWIDTH 333 0
DWIDTH 8 0
BBX 3 5 3 12
BITMAP
C0
E0
20
60
C0
ENDCHAR
STARTCHAR quotedblleft
ENCODING 147
SWIDTH 444 0
DWIDTH 11 0
BBX 7 5 2 12
BITMAP
66
CC
88
EE
66
ENDCHAR
STARTCHAR quotedblright
ENCODING 148
SWIDTH 444 0
DWIDTH 11 0
BBX 7 5 2 12
BITMAP
CC
EE
22
66
CC
ENDCHAR
STARTCHAR bullet
ENCODING 149
SWIDTH 350 0
DWIDTH 7 0
BBX 5 6 1 5
BITMAP
70
F8
F8
F8
F8
70
ENDCHAR
STARTCHAR endash
ENCODING 150
SWIDTH 500 0
DWIDTH 12 0
BBX 12 1 0 6
BITMAP
FFF0
ENDCHAR
STARTCHAR emdash
ENCODING 151
SWIDTH 1000 0
DWIDTH 25 0
BBX 25 1 0 6
BITMAP
FFFFFF80
ENDCHAR
STARTCHAR trademark
ENCODING 153
SWIDTH 980 0
DWIDTH 23 0
BBX 21 10 1 7
BITMAP
FFB018
889830
889830
081C70
081450
0816D0
081290
081390
081110
3E3938
ENDCHAR
STARTCHAR afii10106
ENCODING 154
SWIDTH 800 0
DWIDTH 20 0
BBX 18 12 1 0
BITMAP
3FF000
086000
086000
086000
086000
087F00
086180
1060C0
1060C0
D060C0
E06180
60FF00
ENDCHAR
STARTCHAR guilsinglright
ENCODING 155
SWIDTH 333 0
DWIDTH 8 0
BBX 5 10 2 1
BITMAP
80
C0
60
30
18
18
30
60
C0
80
ENDCHAR
STARTCHAR afii10107
ENCODING 156
SWIDTH 760 0
DWIDTH 19 0
BBX 17 12 1 0
BITMAP
F1E000
60C000
60C000
60C000
60C000
7FFE00
60C300
60C180
60C180
60C180
60C300
F1FE00
ENDCHAR
STARTCHAR afii10109
ENCODING 157
SWIDTH 480 0
DWIDTH 12 0
BBX 11 17 1 0
BITMAP
0180
0380
0600
0800
0000
F7C0
6300
6600
6400
6800
7800
6C00
6E00
6700
6380
61C0
F3E0
ENDCHAR
STARTCHAR afii10108
ENCODING 158
SWIDTH 520 0
DWIDTH 13 0
BBX 11 17 1 0
BITMAP
E000
6000
FE00
6000
6000
6700
6F80
71C0
60C0
60C0
60C0
60C0
60C0
60C0
60C0
60C0
F1E0
ENDCHAR
STARTCHAR afii10193
ENCODING 159
SWIDTH 520 0
DWIDTH 13 0
BBX 11 15 1 -3
BITMAP
F1E0
60C0
60C0
60C0
60C0
60C0
60C0
60C0
60C0
60C0
60C0
FFE0
0E00
0400
0400
ENDCHAR
STARTCHAR space
ENCODING 160
SWIDTH 250 0
DWIDTH 6 0
BBX 0 0 0 0
BITMAP
ENDCHAR
STARTCHAR afii10062
ENCODING 161
SWIDTH 640 0
DWIDTH 16 0
BBX 16 22 0 0
BITMAP
0630
0630
03E0
0000
0000
FC3F
300C
3808
1818
1C10
0C30
0620
0660
0340
03C0
0080
0180
0100
0300
6200
7400
3800
ENDCHAR
STARTCHAR afii10110
ENCODING 162
SWIDTH 440 0
DWIDTH 11 0
BBX 11 22 0 -5
BITMAP
3180
3180
1F00
0000
0000
F1E0
60C0
6080
3080
3080
3100
1900
1900
1A00
0E00
0E00
0400
0C00
0800
1800
F000
E000
ENDCHAR
STARTCHAR afii10057
ENCODING 163
SWIDTH 389 0
DWIDTH 11 0
BBX 9 17 1 0
BITMAP
1F80
0600
0600
0600
0600
0600
0600
0600
0600
0600
0600
0600
0600
0600
C600
CC00
7800
ENDCHAR
STARTCHAR currency
ENCODING 164
SWIDTH 500 0
DWIDTH 13 0
BBX 11 12 1 3
BITMAP
C060
EEE0
7FC0
3180
60C0
60C0
60C0
60C0
3180
7FC0
EEE0
C060
ENDCHAR
STARTCHAR afii10050
ENCODING 165
SWIDTH 560 0
DWIDTH 14 0
BBX 13 21 1 0
BITMAP
0008
0008
0008
0018
FFF8
3000
3000
3000
3000
3000
3000
3000
3000
3000
3000
3000
3000
3000
3000
3000
FC00
ENDCHAR
STARTCHAR brokenbar
ENCODING 166
SWIDTH 200 0
DWIDTH 6 0
BBX 2 17 2 0
BITMAP
C0
C0
C0
C0
C0
C0
C0
00
00
00
C0
C0
C0
C0
C0
C0
C0
ENDCHAR
STARTCHAR section
ENCODING 167
SWIDTH 500 0
DWIDTH 12 0
BBX 8 20 2 -2
BITMAP
1C
26
46
60
70
38
3C
4E
87
83
C3
E2
74
38
1C
0E
06
62
64
38
ENDCHAR
STARTCHAR afii10023
ENCODING 168
SWIDTH 611 0
DWIDTH 15 0
BBX 13 21 1 0
BITMAP
1980
1980
0000
0000
FFF0
3030
3010
3010
3000
3000
3040
3040
3FC0
3040
3040
3000
3000
3008
3008
3018
FFF8
ENDCHAR
STARTCHAR copyright
ENCODING 169
SWIDTH 760 0
DWIDTH 19 0
BBX 17 17 1 0
BITMAP
07F000
1C1C00
300600
61E300
473100
C41980
8C0080
880080
880080
880080
8C0080
C41980
477100
61C300
300600
1C1C00
07F000
ENDCHAR
STARTCHAR afii10053
ENCODING 170
SWIDTH 640 0
DWIDTH 16 0
BBX 14 17 1 0
BITMAP
07E4
1C3C
380C
6004
6004
C000
C000
C000
FFC0
C000
C000
C000
6000
6004
3808
1E38
07E0
ENDCHAR
STARTCHAR guillemotleft
ENCODING 171
SWIDTH 500 0
DWIDTH 13 0
BBX 9 10 2 1
BITMAP
0880
1980
3300
6600
CC00
CC00
6600
3300
1980
0880
ENDCHAR
STARTCHAR logicalnot
ENCODING 172
SWIDTH 564 0
DWIDTH 14 0
BBX 12 7 1 3
BITMAP
FFF0
FFF0
0030
0030
0030
0030
0030
ENDCHAR
STARTCHAR hyphen
ENCODING 173
SWIDTH 333 0
DWIDTH 9 0
BBX 7 2 1 5
BITMAP
FE
FE
ENDCHAR
STARTCHAR registered
ENCODING 174
SWIDTH 760 0
DWIDTH 19 0
BBX 17 17 1 0
BITMAP
07F000
1C1C00
300600
67E300
423100
C21180
821080
823080
83E080
824080
822080
C23180
471900
600300
300600
1C1C00
07F000
ENDCHAR
STARTCHAR afii10056
ENCODING 175
SWIDTH 333 0
DWIDTH 8 0
BBX 6 21 1 0
BITMAP
CC
CC
00
00
FC
30
30
30
30
30
30
30
30
30
30
30
30
30
30
30
FC
ENDCHAR
STARTCHAR degree
ENCODING 176
SWIDTH 400 0
DWIDTH 9 0
BBX 7 7 1 10
BITMAP
38
44
82
82
82
44
38
ENDCHAR
STARTCHAR plusminus
ENCODING 177
SWIDTH 564 0
DWIDTH 14 0
BBX 12 15 1 0
BITMAP
0600
0600
0600
0600
0600
FFF0
FFF0
0600
0600
0600
0600
0600
0000
FFF0
FFF0
ENDCHAR
STARTCHAR afii10055
ENCODING 178
SWIDTH 333 0
DWIDTH 8 0
BBX 6 17 1 0
BITMAP
FC
30
30
30
30
30
30
30
30
30
30
30
30
30
30
30
FC
ENDCHAR
STARTCHAR afii10103
ENCODING 179
SWIDTH 278 0
DWIDTH 6 0
BBX 4 17 1 0
BITMAP
60
60
00
00
00
E0
60
60
60
60
60
60
60
60
60
60
F0
ENDCHAR
STARTCHAR afii10098
ENCODING 180
SWIDTH 440 0
DWIDTH 11 0
BBX 9 15 1 0
BITMAP
0080
0080
0180
FF80
6000
6000
6000
6000
6000
6000
6000
6000
6000
6000
F000
ENDCHAR
STARTCHAR mu
ENCODING 181
SWIDTH 500 0
DWIDTH 13 0
BBX 11 17 1 -5
BITMAP
E1C0
60C0
60C0
60C0
60C0
60C0
60C0
60C0
60C0
71C0
7EC0
5CE0
4000
4000
C000
E000
4000
ENDCHAR
STARTCHAR paragraph
ENCODING 182
SWIDTH 453 0
DWIDTH 11 0
BBX 9 22 1 -5
BITMAP
1F80
3900
7900
7900
F900
F900
F900
7900
7900
3900
1900
0900
0900
0900
0900
0900
0900
0900
0900
0900
0900
0900
ENDCHAR
STARTCHAR periodcentered
ENCODING 183
SWIDTH 250 0
DWIDTH 6 0
BBX 2 2 2 6
BITMAP
C0
C0
ENDCHAR
STARTCHAR afii10071
ENCODING 184
SWIDTH 444 0
DWIDTH 11 0
BBX 9 16 1 0
BITMAP
3300
3300
0000
0000
1E00
6300
4180
C180
FF80
C000
C000
C000
E000
7080
7F00
1E00
ENDCHAR
STARTCHAR afii61352
ENCODING 185
SWIDTH 1000 0
DWIDTH 25 0
BBX 24 17 0 0
BITMAP
3C00E0
0C01B0
0E0130
0E0100
0B0100
098100
098100
08C11E
086137
086133
083133
081933
08193B
080D1E
C80700
D80700
70033F
ENDCHAR
STARTCHAR afii10101
ENCODING 186
SWIDTH 440 0
DWIDTH 11 0
BBX 9 12 1 0
BITMAP
1F00
6380
4180
C000
C000
FC00
C000
C000
E000
7080
7F00
1E00
ENDCHAR
STARTCHAR guillemotright
ENCODING 187
SWIDTH 500 0
DWIDTH 12 0
BBX 9 10 2 1
BITMAP
8800
CC00
6600
3300
1980
1980
3300
6600
CC00
8800
ENDCHAR
STARTCHAR afii10105
ENCODING 188
SWIDTH 278 0
DWIDTH 6 0
BBX 4 22 0 -5
BITMAP
30
30
00
00
00
70
30
30
30
30
30
30
30
30
30
30
30
30
30
30
E0
C0
ENDCHAR
STARTCHAR afii10054
ENCODING 189
SWIDTH 556 0
DWIDTH 13 0
BBX 11 17 1 0
BITMAP
1E40
63C0
C0C0
C040
C040
E000
7800
1E00
0F80
03C0
00E0
0060
8060
8060
C0C0
F180
9E00
ENDCHAR
STARTCHAR afii10102
ENCODING 190
SWIDTH 389 0
DWIDTH 10 0
BBX 8 12 1 0
BITMAP
3E
66
C2
E0
70
7C
1E
07
03
83
C6
F8
ENDCHAR
STARTCHAR afii10104
ENCODING 191
SWIDTH 278 0
DWIDTH 6 0
BBX 6 16 0 0
BITMAP
CC
CC
00
00
70
30
30
30
30
30
30
30
30
30
30
78
ENDCHAR
STARTCHAR afii10017
ENCODING 192
SWIDTH 680 0
DWIDTH 17 0
BBX 17 17 0 0
BITMAP
008000
01C000
01C000
016000
026000
023000
063000
043000
041800
0C1800
0FF800
080C00
180C00
100C00
100600
300600
FC1F80
ENDCHAR
STARTCHAR afii10018
ENCODING 193
SWIDTH 640 0
DWIDTH 16 0
BBX 14 17 1 0
BITMAP
FFF8
3018
3008
3008
3000
3000
3000
3000
3FE0
3038
3018
300C
300C
300C
3018
3078
FFE0
ENDCHAR
STARTCHAR afii10019
ENCODING 194
SWIDTH 640 0
DWIDTH 16 0
BBX 14 17 1 0
BITMAP
FFC0
3070
3030
3018
3018
3018
3030
3040
3FE0
3038
3018
300C
300C
300C
3018
3078
FFE0
ENDCHAR
STARTCHAR afii10020
ENCODING 195
SWIDTH 560 0
DWIDTH 14 0
BBX 13 17 1 0
BITMAP
FFF8
3018
3008
3008
3000
3000
3000
3000
3000
3000
3000
3000
3000
3000
3000
3000
FC00
ENDCHAR
STARTCHAR afii10021
ENCODING 196
SWIDTH 720 0
DWIDTH 18 0
BBX 16 21 1 -4
BITMAP
3FFF
080C
080C
080C
080C
080C
080C
080C
080C
080C
080C
080C
100C
100C
100C
200C
FFFF
C003
8001
8001
8001
ENDCHAR
STARTCHAR afii10022
ENCODING 197
SWIDTH 600 0
DWIDTH 15 0
BBX 13 17 1 0
BITMAP
FFF0
3030
3010
3010
3000
3000
3040
3040
3FC0
3040
3040
3000
3000
3008
3008
3018
FFF8
ENDCHAR
STARTCHAR afii10024
ENCODING 198
SWIDTH 960 0
DWIDTH 24 0
BBX 24 17 0 0
BITMAP
7E7E7E
181818
0C1830
061860
0318C0
019980
00DB00
007E00
00FF00
01DB80
0399C0
0718E0
0E1870
1C1838
38181C
70180E
F87E1F
ENDCHAR
STARTCHAR afii10025
ENCODING 199
SWIDTH 600 0
DWIDTH 15 0
BBX 13 17 1 0
BITMAP
4F80
78E0
6060
4030
4030
0030
0060
0080
0FC0
0070
0030
0018
0018
8018
4030
70F0
1FC0
ENDCHAR
STARTCHAR afii10026
ENCODING 200
SWIDTH 760 0
DWIDTH 19 0
BBX 17 17 1 0
BITMAP
FC1F80
300600
300600
300E00
301600
302600
306600
304600
308600
310600
330600
320600
340600
380600
300600
300600
FC1F80
ENDCHAR
STARTCHAR afii10027
ENCODING 201
SWIDTH 760 0
DWIDTH 19 0
BBX 17 22 1 0
BITMAP
063000
063000
03E000
000000
000000
FC1F80
300600
300600
300E00
301600
302600
306600
304600
308600
310600
330600
320600
340600
380600
300600
300600
FC1F80
ENDCHAR
STARTCHAR afii10028
ENCODING 202
SWIDTH 680 0
DWIDTH 17 0
BBX 16 17 1 0
BITMAP
FC7E
3018
3030
3060
30C0
3180
3300
3E00
3F00
3380
31C0
30E0
3070
3038
301C
300E
FC1F
ENDCHAR
STARTCHAR afii10029
ENCODING 203
SWIDTH 760 0
DWIDTH 19 0
BBX 17 17 1 0
BITMAP
1FFF80
040600
040600
040600
040600
040600
040600
040600
040600
040600
040600
040600
080600
C80600
C80600
D00600
601F80
ENDCHAR
STARTCHAR afii10030
ENCODING 204
SWIDTH 880 0
DWIDTH 22 0
BBX 21 17 1 0
BITMAP
F000F8
3000E0
380160
380160
2C0260
2C0260
260260
260460
230460
230860
218860
218860
20D060
20D060
206060
206060
F821F8
ENDCHAR
STARTCHAR afii10031
ENCODING 205
SWIDTH 760 0
DWIDTH 19 0
BBX 17 17 1 0
BITMAP
FC1F80
300600
300600
300600
300600
300600
300600
300600
3FFE00
300600
300600
300600
300600
300600
300600
300600
FC1F80
ENDCHAR
STARTCHAR afii10032
ENCODING 206
SWIDTH 720 0
DWIDTH 18 0
BBX 16 17 1 0
BITMAP
07E0
1C38
381C
6006
6006
C003
C003
C003
C003
C003
C003
C003
6006
6006
381C
1C38
07E0
ENDCHAR
STARTCHAR afii10033
ENCODING 207
SWIDTH 760 0
DWIDTH 19 0
BBX 17 17 1 0
BITMAP
FFFF80
300600
300600
300600
300600
300600
300600
300600
300600
300600
300600
300600
300600
300600
300600
300600
FC1F80
ENDCHAR
STARTCHAR afii10034
ENCODING 208
SWIDTH 600 0
DWIDTH 15 0
BBX 13 17 1 0
BITMAP
FFC0
3070
3030
3018
3018
3018
3030
3070
3FC0
3000
3000
3000
3000
3000
3000
3000
FC00
ENDCHAR
STARTCHAR afii10035
ENCODING 209
SWIDTH 640 0
DWIDTH 16 0
BBX 14 17 1 0
BITMAP
07E4
1C3C
380C
6004
6004
C000
C000
C000
C000
C000
C000
C000
6000
6004
3808
1E38
07E0
ENDCHAR
STARTCHAR afii10036
ENCODING 210
SWIDTH 640 0
DWIDTH 16 0
BBX 14 17 1 0
BITMAP
FFFC
C30C
8304
8304
0300
0300
0300
0300
0300
0300
0300
0300
0300
0300
0300
0300
0FC0
ENDCHAR
STARTCHAR afii10037
ENCODING 211
SWIDTH 640 0
DWIDTH 16 0
BBX 16 17 0 0
BITMAP
FC3F
300C
3808
1818
1C10
0C30
0620
0660
0340
03C0
0080
0180
0100
0300
6200
7400
3800
ENDCHAR
STARTCHAR afii10038
ENCODING 212
SWIDTH 720 0
DWIDTH 18 0
BBX 16 17 1 0
BITMAP
07E0
0180
0FF0
399C
6186
6186
C183
C183
C183
C183
C183
6186
6186
399C
0FF0
0180
07E0
ENDCHAR
STARTCHAR afii10039
ENCODING 213
SWIDTH 720 0
DWIDTH 18 0
BBX 18 17 0 0
BITMAP
7E0F80
1C0600
0E0C00
060800
031000
03A000
01C000
00C000
00E000
017000
023800
061800
040C00
080E00
180700
300380
FC0FC0
ENDCHAR
STARTCHAR afii10040
ENCODING 214
SWIDTH 760 0
DWIDTH 19 0
BBX 17 21 1 -4
BITMAP
FC1F80
300600
300600
300600
300600
300600
300600
300600
300600
300600
300600
300600
300600
300600
300600
300600
FFFF80
000180
000080
000080
000080
ENDCHAR
STARTCHAR afii10041
ENCODING 215
SWIDTH 760 0
DWIDTH 19 0
BBX 17 17 1 0
BITMAP
FC1F80
300600
300600
300600
300600
300600
300600
300600
180E00
1C1E00
07F600
000600
000600
000600
000600
000600
001F80
ENDCHAR
STARTCHAR afii10042
ENCODING 216
SWIDTH 960 0
DWIDTH 24 0
BBX 22 17 1 0
BITMAP
FCFCFC
303030
303030
303030
303030
303030
303030
303030
303030
303030
303030
303030
303030
303030
303030
303030
FFFFFC
ENDCHAR
STARTCHAR afii10043
ENCODING 217
SWIDTH 960 0
DWIDTH 24 0
BBX 22 21 1 -4
BITMAP
FCFCFC
303030
303030
303030
303030
303030
303030
303030
303030
303030
303030
303030
303030
303030
303030
303030
FFFFFC
00000C
000004
000004
000004
ENDCHAR
STARTCHAR afii10044
ENCODING 218
SWIDTH 760 0
DWIDTH 19 0
BBX 17 17 1 0
BITMAP
FF8000
C60000
860000
860000
060000
060000
060000
060000
07FC00
060700
060300
060180
060180
060180
060300
060F00
1FFC00
ENDCHAR
STARTCHAR afii10045
ENCODING 219
SWIDTH 960 0
DWIDTH 24 0
BBX 22 17 1 0
BITMAP
FC00FC
300030
300030
300030
300030
300030
300030
300030
3FE030
303830
301830
300C30
300C30
300C30
301830
307830
FFE0FC
ENDCHAR
STARTCHAR afii10046
ENCODING 220
SWIDTH 640 0
DWIDTH 16 0
BBX 14 17 1 0
BITMAP
FC00
3000
3000
3000
3000
3000
3000
3000
3FE0
3038
3018
300C
300C
300C
3018
3078
FFE0
ENDCHAR
STARTCHAR afii10047
ENCODING 221
SWIDTH 640 0
DWIDTH 16 0
BBX 14 17 1 0
BITMAP
9F80
F0E0
C070
8018
8018
000C
000C
000C
0FFC
000C
000C
000C
0018
8018
4070
71E0
1F80
ENDCHAR
STARTCHAR afii10048
ENCODING 222
SWIDTH 1000 0
DWIDTH 25 0
BBX 23 17 1 0
BITMAP
FC07C0
301C70
303838
30600C
30600C
30C006
30C006
30C006
3FC006
30C006
30C006
30C006
30600C
30600C
303838
301C70
FC07C0
ENDCHAR
STARTCHAR afii10049
ENCODING 223
SWIDTH 640 0
DWIDTH 16 0
BBX 15 17 0 0
BITMAP
07FE
1C18
1818
3818
3018
3818
1818
1C18
07F8
0398
0718
0618
0C18
1C18
3818
7018
F07E
ENDCHAR
STARTCHAR afii10065
ENCODING 224
SWIDTH 440 0
DWIDTH 11 0
BBX 9 12 1 0
BITMAP
3E00
6700
6300
0300
0F00
3B00
6300
C300
C300
C700
FB00
7180
ENDCHAR
STARTCHAR afii10066
ENCODING 225
SWIDTH 480 0
DWIDTH 12 0
BBX 10 17 1 0
BITMAP
0040
0F80
3E00
7000
4000
DE00
B380
E180
C0C0
C0C0
C0C0
C0C0
C0C0
C0C0
6180
7380
1E00
ENDCHAR
STARTCHAR afii10067
ENCODING 226
SWIDTH 480 0
DWIDTH 12 0
BBX 10 12 1 0
BITMAP
FF00
6180
60C0
60C0
6180
7F00
6180
60C0
60C0
60C0
6180
FF00
ENDCHAR
STARTCHAR afii10068
ENCODING 227
SWIDTH 440 0
DWIDTH 11 0
BBX 9 12 1 0
BITMAP
FF80
6180
6080
6080
6000
6000
6000
6000
6000
6000
6000
F000
ENDCHAR
STARTCHAR afii10069
ENCODING 228
SWIDTH 520 0
DWIDTH 13 0
BBX 11 15 1 -3
BITMAP
7FE0
10C0
10C0
10C0
10C0
10C0
10C0
20C0
20C0
20C0
40C0
FFE0
C060
8020
8020
ENDCHAR
STARTCHAR afii10070
ENCODING 229
SWIDTH 440 0
DWIDTH 11 0
BBX 9 12 1 0
BITMAP
1E00
6300
4180
C180
FF80
C000
C000
C000
E000
7080
7F00
1E00
ENDCHAR
STARTCHAR afii10072
ENCODING 230
SWIDTH 720 0
DWIDTH 18 0
BBX 18 12 0 0
BITMAP
7DEF80
18C600
0CCC00
04C800
02D000
03F000
06D800
0EDC00
1CCE00
38C700
70C380
F9E7C0
ENDCHAR
STARTCHAR afii10073
ENCODING 231
SWIDTH 440 0
DWIDTH 11 0
BBX 9 12 1 0
BITMAP
5E00
7300
6180
4180
0300
1E00
0300
0180
0180
8180
6300
3E00
ENDCHAR
STARTCHAR afii10074
ENCODING 232
SWIDTH 520 0
DWIDTH 13 0
BBX 11 12 1 0
BITMAP
F1E0
60C0
60C0
61C0
62C0
64C0
64C0
68C0
70C0
60C0
60C0
F1E0
ENDCHAR
STARTCHAR afii10075
ENCODING 233
SWIDTH 520 0
DWIDTH 13 0
BBX 11 17 1 0
BITMAP
3180
3180
1F00
0000
0000
F1E0
60C0
60C0
61C0
62C0
64C0
64C0
68C0
70C0
60C0
60C0
F1E0
ENDCHAR
STARTCHAR afii10076
ENCODING 234
SWIDTH 480 0
DWIDTH 12 0
BBX 11 12 1 0
BITMAP
F7C0
6300
6600
6400
6800
7800
6C00
6E00
6700
6380
61C0
F3E0
ENDCHAR
STARTCHAR afii10077
ENCODING 235
SWIDTH 560 0
DWIDTH 14 0
BBX 12 12 1 0
BITMAP
3FF0
0860
0860
0860
0860
0860
0860
1060
1060
D060
E060
60F0
ENDCHAR
STARTCHAR afii10078
ENCODING 236
SWIDTH 680 0
DWIDTH 17 0
BBX 15 12 1 0
BITMAP
E01E
701C
702C
582C
584C
4C4C
4C4C
468C
468C
430C
430C
E11E
ENDCHAR
STARTCHAR afii10079
ENCODING 237
SWIDTH 520 0
DWIDTH 13 0
BBX 11 12 1 0
BITMAP
F1E0
60C0
60C0
60C0
60C0
7FC0
60C0
60C0
60C0
60C0
60C0
F1E0
ENDCHAR
STARTCHAR afii10080
ENCODING 238
SWIDTH 480 0
DWIDTH 12 0
BBX 10 12 1 0
BITMAP
1E00
7380
6180
C0C0
C0C0
C0C0
C0C0
C0C0
C0C0
6180
7380
1E00
ENDCHAR
STARTCHAR afii10081
ENCODING 239
SWIDTH 520 0
DWIDTH 13 0
BBX 11 12 1 0
BITMAP
FFE0
60C0
60C0
60C0
60C0
60C0
60C0
60C0
60C0
60C0
60C0
F1E0
ENDCHAR
STARTCHAR afii10082
ENCODING 240
SWIDTH 480 0
DWIDTH 12 0
BBX 10 17 1 -5
BITMAP
EE00
7380
6180
60C0
60C0
60C0
60C0
60C0
60C0
6180
7380
6E00
6000
6000
6000
6000
F000
ENDCHAR
STARTCHAR afii10083
ENCODING 241
SWIDTH 440 0
DWIDTH 11 0
BBX 9 12 1 0
BITMAP
1F00
6380
4180
C000
C000
C000
C000
C000
E000
7080
7F00
1E00
ENDCHAR
STARTCHAR afii10084
ENCODING 242
SWIDTH 560 0
DWIDTH 14 0
BBX 12 12 1 0
BITMAP
FFF0
C630
8610
0600
0600
0600
0600
0600
0600
0600
0600
0F00
ENDCHAR
STARTCHAR afii10085
ENCODING 243
SWIDTH 440 0
DWIDTH 11 0
BBX 11 17 0 -5
BITMAP
F1E0
60C0
6080
3080
3080
3100
1900
1900
1A00
0E00
0E00
0400
0C00
0800
1800
F000
E000
ENDCHAR
STARTCHAR afii10086
ENCODING 244
SWIDTH 720 0
DWIDTH 18 0
BBX 16 22 1 -5
BITMAP
0380
0180
0180
0180
0180
1DB8
73CE
6186
C183
C183
C183
C183
C183
C183
6186
73CE
1DB8
0180
0180
0180
0180
03C0
ENDCHAR
STARTCHAR afii10087
ENCODING 245
SWIDTH 520 0
DWIDTH 13 0
BBX 11 12 1 0
BITMAP
F1E0
60C0
3180
3900
1A00
0C00
0E00
1B00
3380
2180
60C0
F1E0
ENDCHAR
STARTCHAR afii10088
ENCODING 246
SWIDTH 520 0
DWIDTH 13 0
BBX 11 15 1 -3
BITMAP
F1E0
60C0
60C0
60C0
60C0
60C0
60C0
60C0
60C0
60C0
60C0
FFE0
0060
0020
0020
ENDCHAR
STARTCHAR afii10089
ENCODING 247
SWIDTH 520 0
DWIDTH 13 0
BBX 11 12 1 0
BITMAP
F1E0
60C0
60C0
60C0
60C0
71C0
3FC0
1EC0
00C0
00C0
00C0
01E0
ENDCHAR
STARTCHAR afii10090
ENCODING 248
SWIDTH 800 0
DWIDTH 20 0
BBX 18 12 1 0
BITMAP
F1E3C0
60C180
60C180
60C180
60C180
60C180
60C180
60C180
60C180
60C180
60C180
FFFFC0
ENDCHAR
STARTCHAR afii10091
ENCODING 249
SWIDTH 800 0
DWIDTH 20 0
BBX 18 15 1 -3
BITMAP
F1E3C0
60C180
60C180
60C180
60C180
60C180
60C180
60C180
60C180
60C180
60C180
FFFFC0
0000C0
000040
000040
ENDCHAR
STARTCHAR afii10092
ENCODING 250
SWIDTH 600 0
DWIDTH 15 0
BBX 13 12 1 0
BITMAP
FE00
CC00
8C00
8C00
0C00
0FE0
0C30
0C18
0C18
0C18
0C30
1FE0
ENDCHAR
STARTCHAR afii10093
ENCODING 251
SWIDTH 720 0
DWIDTH 18 0
BBX 16 12 1 0
BITMAP
F00F
6006
6006
6006
6006
7F06
6186
60C6
60C6
60C6
6186
FF0F
ENDCHAR
STARTCHAR afii10094
ENCODING 252
SWIDTH 480 0
DWIDTH 12 0
BBX 10 12 1 0
BITMAP
F000
6000
6000
6000
6000
7F00
6180
60C0
60C0
60C0
6180
FF00
ENDCHAR
STARTCHAR afii10095
ENCODING 253
SWIDTH 440 0
DWIDTH 11 0
BBX 9 12 1 0
BITMAP
BC00
E700
C300
8180
0180
1F80
0180
0180
0180
8300
6700
3C00
ENDCHAR
STARTCHAR afii10096
ENCODING 254
SWIDTH 720 0
DWIDTH 18 0
BBX 16 12 1 0
BITMAP
F078
61CE
6186
6303
6303
7F03
6303
6303
6303
6186
61CE
F078
ENDCHAR
STARTCHAR afii10097
ENCODING 255
SWIDTH 480 0
DWIDTH 12 0
BBX 11 12 0 0
BITMAP
1FE0
30C0
60C0
60C0
60C0
30C0
1FC0
0CC0
18C0
38C0
70C0
E1E0
ENDCHAR
STARTCHAR Lslash
ENCODING -1
SWIDTH 611 0
DWIDTH 15 0
BBX 14 17 0 0
BITMAP
7E00
1800
1800
1800
1800
1900
1A00
1C00
3800
5800
9800
1800
1800
1804
1804
180C
7FFC
ENDCHAR
STARTCHAR OE
ENCODING -1
SWIDTH 889 0
DWIDTH 23 0
BBX 21 17 1 0
BITMAP
07FFF0
1C3030
383010
603010
603000
C03000
C03040
C03040
C03FC0
C03040
C03040
C03000
603000
603008
383008
1C3018
07FFF8
ENDCHAR
STARTCHAR Scaron
ENCODING -1
SWIDTH 556 0
DWIDTH 13 0
BBX 11 22 1 0
BITMAP
4080
3300
1E00
0C00
0000
1E40
63C0
C0C0
C040
C040
E000
7800
1E00
0F80
03C0
00E0
0060
8060
8060
C0C0
F180
9E00
ENDCHAR
STARTCHAR Ydieresis
ENCODING -1
SWIDTH 722 0
DWIDTH 16 0
BBX 16 21 0 0
BITMAP
0660
0660
0000
0000
FC3F
300C
3808
1818
1C10
0C30
0620
0660
0340
03C0
0180
0180
0180
0180
0180
0180
07E0
ENDCHAR
STARTCHAR Zcaron
ENCODING -1
SWIDTH 611 0
DWIDTH 15 0
BBX 13 22 1 0
BITMAP
2040
1980
0F00
0600
0000
FFF0
C070
80E0
80C0
01C0
0380
0300
0700
0600
0E00
1C00
1800
3800
3008
7008
E018
FFF8
ENDCHAR
STARTCHAR breve
ENCODING -1
SWIDTH 333 0
DWIDTH 8 0
BBX 6 3 1 14
BITMAP
84
CC
78
ENDCHAR
STARTCHAR caron
ENCODING -1
SWIDTH 333 0
DWIDTH 8 0
BBX 6 4 1 13
BITMAP
84
48
78
30
ENDCHAR
STARTCHAR circumflex
ENCODING -1
SWIDTH 333 0
DWIDTH 8 0
BBX 6 4 1 13
BITMAP
30
78
48
84
ENDCHAR
STARTCHAR dotaccent
ENCODING -1
SWIDTH 333 0
DWIDTH 8 0
BBX 2 2 2 14
BITMAP
C0
C0
ENDCHAR
STARTCHAR dotlessi
ENCODING -1
SWIDTH 278 0
DWIDTH 6 0
BBX 4 12 1 0
BITMAP
E0
60
60
60
60
60
60
60
60
60
60
F0
ENDCHAR
STARTCHAR fi
ENCODING -1
SWIDTH 556 0
DWIDTH 12 0
BBX 11 17 0 0
BITMAP
0FC0
18C0
3000
3000
3000
FFC0
30C0
30C0
30C0
30C0
30C0
30C0
30C0
30C0
30C0
30C0
79E0
ENDCHAR
STARTCHAR fl
ENCODING -1
SWIDTH 556 0
DWIDTH 12 0
BBX 11 17 0 0
BITMAP
0FC0
19C0
30C0
30C0
30C0
FFC0
30C0
30C0
30C0
30C0
30C0
30C0
30C0
30C0
30C0
30C0
79E0
ENDCHAR
STARTCHAR florin
ENCODING -1
SWIDTH 500 0
DWIDTH 13 0
BBX 14 22 -1 -5
BITMAP
0078
00CC
00CC
0180
0180
0180
0180
0FE0
0300
0300
0300
0300
0600
0600
0600
0600
0C00
0C00
0C00
CC00
D800
7000
ENDCHAR
STARTCHAR fraction
ENCODING -1
SWIDTH 167 0
DWIDTH 9 0
BBX 11 17 -1 0
BITMAP
0060
0060
00C0
0180
0180
0300
0300
0600
0C00
0C00
1800
1800
3000
6000
6000
C000
C000
ENDCHAR
STARTCHAR hungarumlaut
ENCODING -1
SWIDTH 333 0
DWIDTH 8 0
BBX 9 4 0 13
BITMAP
1980
3B80
6600
8800
ENDCHAR
STARTCHAR lslash
ENCODING -1
SWIDTH 278 0
DWIDTH 7 0
BBX 6 17 0 0
BITMAP
70
30
30
30
30
30
34
38
70
B0
30
30
30
30
30
30
78
ENDCHAR
STARTCHAR oe
ENCODING -1
SWIDTH 722 0
DWIDTH 17 0
BBX 15 12 1 0
BITMAP
1E78
73CC
6186
C186
C1FE
C180
C180
C180
C180
61C2
73FC
1E78
ENDCHAR
STARTCHAR ogonek
ENCODING -1
SWIDTH 333 0
DWIDTH 8 0
BBX 5 5 2 -5
BITMAP
60
C0
C0
C8
70
ENDCHAR
STARTCHAR ring
ENCODING -1
SWIDTH 333 0
DWIDTH 8 0
BBX 5 4 2 13
BITMAP
70
88
88
70
ENDCHAR
STARTCHAR scaron
ENCODING -1
SWIDTH 389 0
DWIDTH 10 0
BBX 8 18 1 0
BITMAP
42
24
3C
18
00
00
3E
46
C2
E0
70
7C
1E
07
03
83
C6
F8
ENDCHAR
STARTCHAR tilde
ENCODING -1
SWIDTH 333 0
DWIDTH 8 0
BBX 6 2 1 14
BITMAP
74
B8
ENDCHAR
STARTCHAR zcaron
ENCODING -1
SWIDTH 444 0
DWIDTH 10 0
BBX 8 18 1 0
BITMAP
42
24
3C
18
00
00
FF
C3
86
0E
1C
18
38
30
70
61
C3
FF
ENDCHAR
ENDFONT
